<svg version="1.1" xmlns="http://www.w3.org/2000/svg" viewBox="400 750 1250 580" preserveAspectRatio="xMidYMid meet">
<path fill="currentColor" d="M 888.733 877.4 C 893.913 876.554 899.736 876.787 904.981 876.854 C 943.255 877.348 981.247 895.342 1007.56 922.781 C 1034.42 950.709 1048.89 988.285 1047.7 1027.01 C 1046.53 1066.42 1029.19 1103.07 1000.57 1129.94 C 952.549 1175.04 908.67 1171.53 847.917 1169.46 L 847.799 1074.75 C 852.927 1078.41 858.184 1082.16 863.8 1085.04 C 881.985 1094.37 903.95 1096.67 923.499 1090.36 C 941.5 1084.55 956.731 1070.87 965.236 1054.05 C 973.4 1037.71 974.785 1018.81 969.089 1001.45 C 962.447 981.349 947.871 967.536 929.326 958.207 C 920.065 954.547 911.224 952.405 901.212 952.362 C 882.404 952.216 864.337 959.684 851.122 973.067 C 841.597 982.539 834.179 994.835 831.429 1008.06 C 826.456 1031.98 829.023 1079.8 829.03 1105.68 L 829.085 1289.87 L 753.763 1289.91 C 755.071 1227.77 753.903 1165.18 753.471 1103.01 C 753.239 1069.64 749.862 1028.06 756.603 995.537 C 761.546 972.788 771.772 951.522 786.456 933.457 C 812.835 900.606 846.991 882.092 888.733 877.4 z"/>
<path fill="currentColor" d="M 1358.78 876.417 C 1400.53 876.216 1438.44 890.951 1468.14 920.613 C 1514.99 967.409 1512.14 1016.61 1512.11 1077.44 L 1511.84 1169.3 C 1486.61 1169.74 1461.37 1169.77 1436.14 1169.41 C 1436.41 1139.68 1436.05 1109.93 1436.07 1080.2 C 1436.08 1057.42 1438.42 1031.94 1433.65 1009.6 C 1431.21 998.568 1426.2 988.267 1419.02 979.541 C 1406.73 964.51 1388.56 953.87 1369.1 952.07 C 1349.91 950.444 1330.86 956.49 1316.12 968.884 C 1300.4 982.034 1293.25 999.775 1291.33 1019.76 C 1290.62 1036.45 1295.9 1052.86 1306.22 1066 C 1318.97 1081.83 1337.47 1091.96 1357.67 1094.17 C 1380.79 1096.74 1398.94 1087.87 1416.53 1073.72 C 1416.93 1105.53 1417.07 1137.34 1416.93 1169.16 C 1358.48 1170.58 1315.36 1176.23 1267.66 1134.93 C 1237.93 1109.1 1219.62 1072.57 1216.71 1033.29 C 1214.07 993.457 1227.62 954.243 1254.3 924.544 C 1281.86 893.582 1317.96 878.733 1358.78 876.417 z"/>
<path fill="currentColor" d="M 1205.57 876.419 L 1216.12 876.093 L 1215.8 951.722 C 1194.59 951.779 1175.69 957.271 1160.48 972.717 C 1151.24 982.248 1144.77 994.113 1141.76 1007.04 C 1136.58 1028.73 1139.04 1053.99 1139.09 1076.2 L 1139.18 1169 C 1117.7 1169.32 1096.23 1169.4 1074.75 1169.25 L 1064.43 1169.07 L 1064.05 1078.08 C 1063.81 1023.55 1059.86 971.29 1098.53 927.107 C 1126.72 894.898 1163.32 879.27 1205.57 876.419 z"/>
<path fill="currentColor" d="M 1531.17 877.24 C 1556.08 876.704 1581.09 877.097 1606.02 877.076 C 1605.29 951.278 1606.05 1025.58 1606.25 1099.78 C 1606.28 1109.78 1607.65 1162.2 1606.3 1167.51 C 1606.11 1168.23 1605.53 1168.79 1605.15 1169.44 C 1580.76 1169.75 1556.37 1169.85 1531.98 1169.76 L 1531.17 877.24 z"/>
<path fill="currentColor" d="M 578.263 877.4 C 580.015 877.17 581.812 877.145 583.578 877.073 C 623.036 875.549 661.448 889.969 690.155 917.083 C 719.127 944.407 736.082 982.105 737.302 1021.91 C 731.222 1010.74 723.4 1000.62 714.131 991.916 C 683.617 963.026 642.745 947.656 600.755 949.28 C 579.331 951.084 558.817 956.377 542.447 971.08 C 526.459 985.44 519.461 1003.9 518.438 1024.97 C 493.337 1025.14 468.236 1025.02 443.137 1024.63 C 443.252 990.195 455.142 957.915 476.89 931.218 C 502.73 899.499 537.763 881.491 578.263 877.4 z"/>
<path fill="currentColor" d="M 661.353 1024.97 L 737.031 1024.87 C 736.392 1059.26 723.749 1092.36 701.288 1118.42 C 675.018 1148.72 636.548 1168.71 596.492 1171.49 C 556.561 1174.26 521.66 1160.6 491.694 1134.69 C 461.187 1107.13 448.992 1073.75 442.767 1034.14 C 444.299 1036.46 445.884 1038.74 447.522 1040.98 C 469.822 1071.51 508.333 1093.28 545.497 1098.97 C 573.714 1103.28 605.464 1100.4 629.004 1082.89 C 648.909 1068.09 657.706 1048.99 661.353 1024.97 z"/>
<path fill="currentColor" d="M 1562.6 759.545 C 1586.29 757.126 1607.4 774.495 1609.58 798.203 C 1611.77 821.911 1594.2 842.849 1570.47 844.805 C 1547.07 846.734 1526.48 829.452 1524.32 806.07 C 1522.16 782.687 1539.24 761.93 1562.6 759.545 z"/>
</svg>
