<svg width="1300" height="720" viewBox="0 0 1300 720" xmlns="http://www.w3.org/2000/svg">
  <defs>
    <linearGradient id="g" x1="0" y1="0" x2="1300" y2="720" gradientUnits="userSpaceOnUse">
      <stop stop-color="#14F1C2"/>
      <stop offset="0.5" stop-color="#6A5CFF"/>
      <stop offset="1" stop-color="#A855F7"/>
    </linearGradient>
    <style>
      .card { fill:#0F1524; stroke:#223049; }
      .label { fill:#E5E7EB; font-family: Manrope, Inter, ui-sans-serif; font-weight:800; }
      .sub { fill:#9CA3AF; font-family: Inter, ui-sans-serif; font-size:16px; }
    </style>
  </defs>
  <rect width="1300" height="720" rx="18" fill="#0B0F15"/>
  <g opacity="0.25">
    <circle cx="1100" cy="-60" r="320" fill="url(#g)"/>
    <circle cx="-40" cy="640" r="280" fill="url(#g)"/>
  </g>
  <rect x="40" y="40" width="1220" height="640" rx="16" class="card" />
  <text x="70" y="90" class="label" font-size="28">Agent Capabilities</text>
  <g>
    <rect x="70" y="120" width="340" height="180" rx="12" class="card"/>
    <text x="90" y="160" class="label" font-size="20">NFT Trading</text>
    <text x="90" y="190" class="sub">Snipe, list, manage collections with guardrails</text>
  </g>
  <g>
    <rect x="440" y="120" width="340" height="180" rx="12" class="card"/>
    <text x="460" y="160" class="label" font-size="20">Token Swaps</text>
    <text x="460" y="190" class="sub">Smart routing, slippage, MEV-aware execution</text>
  </g>
  <g>
    <rect x="810" y="120" width="340" height="180" rx="12" class="card"/>
    <text x="830" y="160" class="label" font-size="20">Perp DEX</text>
    <text x="830" y="190" class="sub">Leverage, stops/TP, portfolio risk limits</text>
  </g>
  <g>
    <rect x="70" y="330" width="340" height="180" rx="12" class="card"/>
    <text x="90" y="370" class="label" font-size="20">Token Launch</text>
    <text x="90" y="400" class="sub">Deploy tokens, supply, locks, liquidity</text>
  </g>
  <g>
    <rect x="440" y="330" width="340" height="180" rx="12" class="card"/>
    <text x="460" y="370" class="label" font-size="20">DeFi Analytics</text>
    <text x="460" y="400" class="sub">Liquidity/volatility analysis, strategy builder</text>
  </g>
  <g>
    <rect x="810" y="330" width="340" height="180" rx="12" class="card"/>
    <text x="830" y="370" class="label" font-size="20">Wallet Automation</text>
    <text x="830" y="400" class="sub">Schedules, rebalancing, treasury ops</text>
  </g>
  <rect x="1060" y="540" width="180" height="50" rx="12" fill="url(#g)"/>
  <text x="1098" y="572" class="label" font-size="16" fill="#0B0F15">Preview</text>
</svg>











